<mxfile host="app.diagrams.net" agent="Mozilla/5.0 (Windows NT 10.0; Win64; x64) AppleWebKit/537.36 (KHTML, like Gecko) Chrome/130.0.0.0 Safari/537.36 Edg/130.0.0.0" version="24.8.3">
  <diagram name="第 1 页" id="ja0HRZprbads0ubO2GaX">
    <mxGraphModel dx="2026" dy="1107" grid="1" gridSize="10" guides="1" tooltips="1" connect="1" arrows="1" fold="1" page="1" pageScale="1" pageWidth="827" pageHeight="1169" math="0" shadow="0">
      <root>
        <mxCell id="0" />
        <mxCell id="1" parent="0" />
        <mxCell id="0Gaw6kxAeufQkQbVFPKI-1" value="" style="rounded=1;whiteSpace=wrap;html=1;" vertex="1" parent="1">
          <mxGeometry x="120" y="160" width="570" height="250" as="geometry" />
        </mxCell>
        <mxCell id="0Gaw6kxAeufQkQbVFPKI-12" value="" style="rounded=0;whiteSpace=wrap;html=1;" vertex="1" parent="1">
          <mxGeometry x="35" y="300" width="740" height="80" as="geometry" />
        </mxCell>
        <mxCell id="0Gaw6kxAeufQkQbVFPKI-2" value="Actor" style="shape=umlActor;verticalLabelPosition=bottom;verticalAlign=top;html=1;outlineConnect=0;" vertex="1" parent="1">
          <mxGeometry x="200" y="70" width="30" height="60" as="geometry" />
        </mxCell>
        <mxCell id="0Gaw6kxAeufQkQbVFPKI-3" value="Actor" style="shape=umlActor;verticalLabelPosition=bottom;verticalAlign=top;html=1;outlineConnect=0;" vertex="1" parent="1">
          <mxGeometry x="383.5" y="70" width="30" height="60" as="geometry" />
        </mxCell>
        <mxCell id="0Gaw6kxAeufQkQbVFPKI-4" value="Actor" style="shape=umlActor;verticalLabelPosition=bottom;verticalAlign=top;html=1;outlineConnect=0;" vertex="1" parent="1">
          <mxGeometry x="570" y="70" width="30" height="60" as="geometry" />
        </mxCell>
        <mxCell id="0Gaw6kxAeufQkQbVFPKI-6" value="&lt;font style=&quot;font-size: 20px;&quot;&gt;数据采集中心后端&lt;/font&gt;" style="text;html=1;align=center;verticalAlign=middle;whiteSpace=wrap;rounded=0;" vertex="1" parent="1">
          <mxGeometry x="120" y="170" width="190" height="30" as="geometry" />
        </mxCell>
        <mxCell id="0Gaw6kxAeufQkQbVFPKI-20" value="" style="edgeStyle=orthogonalEdgeStyle;rounded=0;orthogonalLoop=1;jettySize=auto;html=1;" edge="1" parent="1" source="0Gaw6kxAeufQkQbVFPKI-7" target="0Gaw6kxAeufQkQbVFPKI-9">
          <mxGeometry relative="1" as="geometry" />
        </mxCell>
        <mxCell id="0Gaw6kxAeufQkQbVFPKI-21" style="edgeStyle=orthogonalEdgeStyle;rounded=0;orthogonalLoop=1;jettySize=auto;html=1;" edge="1" parent="1" source="0Gaw6kxAeufQkQbVFPKI-7" target="0Gaw6kxAeufQkQbVFPKI-8">
          <mxGeometry relative="1" as="geometry" />
        </mxCell>
        <mxCell id="0Gaw6kxAeufQkQbVFPKI-22" style="edgeStyle=orthogonalEdgeStyle;rounded=0;orthogonalLoop=1;jettySize=auto;html=1;" edge="1" parent="1" source="0Gaw6kxAeufQkQbVFPKI-7" target="0Gaw6kxAeufQkQbVFPKI-10">
          <mxGeometry relative="1" as="geometry" />
        </mxCell>
        <mxCell id="0Gaw6kxAeufQkQbVFPKI-7" value="ElasticSearch" style="rounded=0;whiteSpace=wrap;html=1;" vertex="1" parent="1">
          <mxGeometry x="145" y="210" width="520" height="40" as="geometry" />
        </mxCell>
        <mxCell id="0Gaw6kxAeufQkQbVFPKI-8" value="Pod_1" style="ellipse;shape=cloud;whiteSpace=wrap;html=1;" vertex="1" parent="1">
          <mxGeometry x="160" y="300" width="120" height="80" as="geometry" />
        </mxCell>
        <mxCell id="0Gaw6kxAeufQkQbVFPKI-9" value="Pod_2" style="ellipse;shape=cloud;whiteSpace=wrap;html=1;" vertex="1" parent="1">
          <mxGeometry x="345" y="300" width="120" height="80" as="geometry" />
        </mxCell>
        <mxCell id="0Gaw6kxAeufQkQbVFPKI-10" value="Pod_3" style="ellipse;shape=cloud;whiteSpace=wrap;html=1;" vertex="1" parent="1">
          <mxGeometry x="530" y="300" width="120" height="80" as="geometry" />
        </mxCell>
        <mxCell id="0Gaw6kxAeufQkQbVFPKI-13" value="K8S" style="text;html=1;align=center;verticalAlign=middle;whiteSpace=wrap;rounded=0;fontSize=16;" vertex="1" parent="1">
          <mxGeometry x="35" y="300" width="80" height="30" as="geometry" />
        </mxCell>
        <mxCell id="0Gaw6kxAeufQkQbVFPKI-15" value="" style="rounded=1;whiteSpace=wrap;html=1;" vertex="1" parent="1">
          <mxGeometry x="113.5" y="480" width="570" height="250" as="geometry" />
        </mxCell>
        <mxCell id="0Gaw6kxAeufQkQbVFPKI-35" value="" style="rounded=0;whiteSpace=wrap;html=1;" vertex="1" parent="1">
          <mxGeometry x="20" y="550" width="740" height="80" as="geometry" />
        </mxCell>
        <mxCell id="0Gaw6kxAeufQkQbVFPKI-23" value="规则引擎服务" style="text;html=1;align=center;verticalAlign=middle;whiteSpace=wrap;rounded=0;fontSize=20;" vertex="1" parent="1">
          <mxGeometry x="120" y="490" width="130" height="30" as="geometry" />
        </mxCell>
        <mxCell id="0Gaw6kxAeufQkQbVFPKI-24" value="Pod_1" style="ellipse;shape=cloud;whiteSpace=wrap;html=1;" vertex="1" parent="1">
          <mxGeometry x="160" y="545" width="120" height="80" as="geometry" />
        </mxCell>
        <mxCell id="0Gaw6kxAeufQkQbVFPKI-25" value="Pod_2" style="ellipse;shape=cloud;whiteSpace=wrap;html=1;" vertex="1" parent="1">
          <mxGeometry x="338.5" y="545" width="120" height="80" as="geometry" />
        </mxCell>
        <mxCell id="0Gaw6kxAeufQkQbVFPKI-26" value="Pod_3" style="ellipse;shape=cloud;whiteSpace=wrap;html=1;" vertex="1" parent="1">
          <mxGeometry x="525" y="545" width="120" height="80" as="geometry" />
        </mxCell>
        <mxCell id="0Gaw6kxAeufQkQbVFPKI-27" style="edgeStyle=orthogonalEdgeStyle;rounded=0;orthogonalLoop=1;jettySize=auto;html=1;exitX=0.25;exitY=1;exitDx=0;exitDy=0;" edge="1" parent="1" source="0Gaw6kxAeufQkQbVFPKI-12">
          <mxGeometry relative="1" as="geometry">
            <mxPoint x="220" y="550" as="targetPoint" />
          </mxGeometry>
        </mxCell>
        <mxCell id="0Gaw6kxAeufQkQbVFPKI-33" value="RPC" style="edgeLabel;html=1;align=center;verticalAlign=middle;resizable=0;points=[];" vertex="1" connectable="0" parent="0Gaw6kxAeufQkQbVFPKI-27">
          <mxGeometry x="-0.452" y="2" relative="1" as="geometry">
            <mxPoint as="offset" />
          </mxGeometry>
        </mxCell>
        <mxCell id="0Gaw6kxAeufQkQbVFPKI-28" style="edgeStyle=orthogonalEdgeStyle;rounded=0;orthogonalLoop=1;jettySize=auto;html=1;" edge="1" parent="1" source="0Gaw6kxAeufQkQbVFPKI-9">
          <mxGeometry relative="1" as="geometry">
            <mxPoint x="220" y="550" as="targetPoint" />
            <Array as="points">
              <mxPoint x="405" y="450" />
              <mxPoint x="220" y="450" />
            </Array>
          </mxGeometry>
        </mxCell>
        <mxCell id="0Gaw6kxAeufQkQbVFPKI-29" style="edgeStyle=orthogonalEdgeStyle;rounded=0;orthogonalLoop=1;jettySize=auto;html=1;entryX=0.551;entryY=0.113;entryDx=0;entryDy=0;entryPerimeter=0;" edge="1" parent="1" source="0Gaw6kxAeufQkQbVFPKI-9" target="0Gaw6kxAeufQkQbVFPKI-25">
          <mxGeometry relative="1" as="geometry" />
        </mxCell>
        <mxCell id="0Gaw6kxAeufQkQbVFPKI-30" style="edgeStyle=orthogonalEdgeStyle;rounded=0;orthogonalLoop=1;jettySize=auto;html=1;entryX=0.625;entryY=0.2;entryDx=0;entryDy=0;entryPerimeter=0;exitX=0.5;exitY=1;exitDx=0;exitDy=0;" edge="1" parent="1" source="0Gaw6kxAeufQkQbVFPKI-12" target="0Gaw6kxAeufQkQbVFPKI-26">
          <mxGeometry relative="1" as="geometry">
            <Array as="points">
              <mxPoint x="405" y="450" />
              <mxPoint x="600" y="450" />
            </Array>
          </mxGeometry>
        </mxCell>
        <mxCell id="0Gaw6kxAeufQkQbVFPKI-32" value="RPC" style="edgeLabel;html=1;align=center;verticalAlign=middle;resizable=0;points=[];" vertex="1" connectable="0" parent="0Gaw6kxAeufQkQbVFPKI-30">
          <mxGeometry x="-0.7429" y="-3" relative="1" as="geometry">
            <mxPoint as="offset" />
          </mxGeometry>
        </mxCell>
        <mxCell id="0Gaw6kxAeufQkQbVFPKI-31" style="edgeStyle=orthogonalEdgeStyle;rounded=0;orthogonalLoop=1;jettySize=auto;html=1;exitX=0.75;exitY=1;exitDx=0;exitDy=0;entryX=0.625;entryY=0.2;entryDx=0;entryDy=0;entryPerimeter=0;" edge="1" parent="1" source="0Gaw6kxAeufQkQbVFPKI-12" target="0Gaw6kxAeufQkQbVFPKI-26">
          <mxGeometry relative="1" as="geometry">
            <Array as="points">
              <mxPoint x="600" y="380" />
            </Array>
          </mxGeometry>
        </mxCell>
        <mxCell id="0Gaw6kxAeufQkQbVFPKI-34" value="RPC" style="edgeLabel;html=1;align=center;verticalAlign=middle;resizable=0;points=[];" vertex="1" connectable="0" parent="0Gaw6kxAeufQkQbVFPKI-31">
          <mxGeometry x="-0.3892" y="1" relative="1" as="geometry">
            <mxPoint as="offset" />
          </mxGeometry>
        </mxCell>
        <mxCell id="0Gaw6kxAeufQkQbVFPKI-37" value="K8S" style="text;html=1;align=center;verticalAlign=middle;whiteSpace=wrap;rounded=0;fontSize=16;" vertex="1" parent="1">
          <mxGeometry x="20" y="550" width="80" height="30" as="geometry" />
        </mxCell>
        <mxCell id="0Gaw6kxAeufQkQbVFPKI-38" value="ElasticSearch" style="rounded=0;whiteSpace=wrap;html=1;" vertex="1" parent="1">
          <mxGeometry x="145" y="660" width="520" height="40" as="geometry" />
        </mxCell>
      </root>
    </mxGraphModel>
  </diagram>
</mxfile>
